<svg xmlns="http://www.w3.org/2000/svg" width="426" height="107" fill="none"><path fill="#316BFF" fill-rule="evenodd" d="M18.896 0h68.323c10.436 0 18.896 8.46 18.896 18.896v68.323c0 10.436-8.46 18.895-18.896 18.895H18.896C8.46 106.114 0 97.654 0 87.219V18.896C0 8.46 8.46 0 18.896 0zm56.01 28.424H50.157a2.785 2.785 0 0 0-2.785 2.785v3.904a2.785 2.785 0 0 0 2.785 2.785h24.748a2.785 2.785 0 0 0 2.785-2.785v-3.904a2.785 2.785 0 0 0-2.785-2.785zM50.157 48.322h20.327a2.785 2.785 0 0 1 2.785 2.785v3.904a2.785 2.785 0 0 1-2.785 2.786H50.158a2.785 2.785 0 0 1-2.785-2.786v-3.904a2.785 2.785 0 0 1 2.785-2.785zM77.69 74.905v-3.904a2.786 2.786 0 0 0-2.785-2.785H45.14a7.239 7.239 0 0 1-7.242-7.242V31.21a2.786 2.786 0 0 0-2.785-2.785h-3.904a2.786 2.786 0 0 0-2.785 2.785v35.572a11.689 11.689 0 0 0 10.91 10.91h35.572a2.786 2.786 0 0 0 2.785-2.786z" clip-rule="evenodd"/><path fill="#fff" d="M50.158 28.424h24.748a2.785 2.785 0 0 1 2.785 2.785v3.904a2.785 2.785 0 0 1-2.785 2.785H50.157a2.785 2.785 0 0 1-2.785-2.785v-3.904a2.785 2.785 0 0 1 2.785-2.785zm0 19.898h20.327a2.785 2.785 0 0 1 2.785 2.785v3.904a2.785 2.785 0 0 1-2.785 2.786H50.158a2.785 2.785 0 0 1-2.785-2.786v-3.904a2.785 2.785 0 0 1 2.785-2.785z"/><path fill="#fff" d="M77.69 71.001v3.904a2.786 2.786 0 0 1-2.784 2.786H39.333a11.689 11.689 0 0 1-10.91-10.91V31.21a2.786 2.786 0 0 1 2.786-2.785h3.904a2.786 2.786 0 0 1 2.785 2.785v29.765a7.239 7.239 0 0 0 7.242 7.242h29.766a2.786 2.786 0 0 1 2.785 2.785z"/><path fill="#316BFF" d="M331.803 18.222h-5.165a2.785 2.785 0 0 0-2.785 2.786v5.165a2.785 2.785 0 0 0 2.785 2.785h5.165a2.785 2.785 0 0 0 2.785-2.785v-5.165a2.785 2.785 0 0 0-2.785-2.786z"/><path fill="#fff" d="M144.825 20.361V84.26a2.787 2.787 0 0 1-2.786 2.786h-4.666a2.786 2.786 0 0 1-2.785-2.786V20.361a2.786 2.786 0 0 1 2.785-2.785h4.666a2.787 2.787 0 0 1 2.786 2.785zm19.974 46.014c.896 7.456 7.054 12.323 15.999 12.323 4.144 0 9.185-1.315 12.474-3.708a2.79 2.79 0 0 1 3.592.24l2.714 2.634c1.189 1.154 1.127 3.097-.156 4.14-5.108 4.154-12.3 6.235-18.825 6.235-16.101 0-26.436-10.237-26.436-25.937 0-15.7 10.437-25.54 25.741-25.54s25.545 8.779 24.827 26.944a2.788 2.788 0 0 1-2.785 2.674h-37.15l.005-.005zm29.912-8.645c-.597-7.75-6.261-11.828-14.51-11.828-7.456 0-13.615 4.073-15.206 11.828h29.716zm51.776 26.53V58.504c0-6.458-5.227-11.837-11.685-11.707-7.108.138-11.574 6.145-11.574 13.316v24.145a2.786 2.786 0 0 1-2.785 2.786h-4.666a2.786 2.786 0 0 1-2.785-2.786V40.737a2.786 2.786 0 0 1 2.785-2.786h4.252a2.787 2.787 0 0 1 2.772 2.492l.432 4.068c2.781-5.365 8.547-7.353 13.713-7.353 6.261 0 12.621 2.585 15.406 9.84 3.975-7.255 10.138-9.737 16.797-9.737 13.516 0 20.771 8.547 20.771 22.661v24.346a2.786 2.786 0 0 1-2.785 2.785h-4.764a2.786 2.786 0 0 1-2.785-2.785V57.961c0-6.012-4.796-11.047-10.807-11.056-7.269-.014-11.953 5.953-11.953 13.218v24.145a2.786 2.786 0 0 1-2.785 2.785h-4.764a2.787 2.787 0 0 1-2.786-2.785l-.004-.009z"/><path fill="#316BFF" d="M311.78 20.361V84.26a2.787 2.787 0 0 1-2.786 2.786h-4.666a2.786 2.786 0 0 1-2.785-2.786V20.361a2.786 2.786 0 0 1 2.785-2.785h4.666a2.787 2.787 0 0 1 2.786 2.785zm12.322 20.273V84.26a2.786 2.786 0 0 0 2.785 2.786h4.666a2.787 2.787 0 0 0 2.786-2.786V40.634a2.787 2.787 0 0 0-2.786-2.785h-4.666a2.786 2.786 0 0 0-2.785 2.785zm55.199 7.411c-.927 1.088-2.518 1.262-3.695.446-3.32-2.3-6.898-2.99-10.954-2.99-6.261-.098-10.437 1.987-10.437 5.865.098 4.073 4.372 5.664 10.633 6.261 9.042.793 20.87 2.78 20.772 15.406-.098 9.145-8.151 15.504-20.87 15.504-7.26 0-14.524-1.492-20.647-7.277-1.016-.963-1.141-2.54-.308-3.668l2.091-2.83c.935-1.265 2.754-1.524 3.97-.525 4.417 3.627 10.157 5.17 15.095 5.254 4.871 0 10.334-1.787 10.437-6.36.098-4.372-4.073-6.06-11.329-6.76-9.243-.896-19.876-3.877-19.974-14.707 0-10.834 11.231-14.907 20.375-14.907 6.476 0 11.708 1.239 16.512 4.662a2.792 2.792 0 0 1 .508 4.082l-2.17 2.544h-.009zm30.367-21.012v11.114h11.524a2.786 2.786 0 0 1 2.785 2.786v3.275a2.786 2.786 0 0 1-2.785 2.786h-11.627V70.35c0 5.17 2.286 8.049 7.055 8.049 1.194 0 2.491-.25 3.77-.664 1.426-.464 2.959.347 3.44 1.77l1.168 3.426c.495 1.457-.281 3.053-1.742 3.539a22.212 22.212 0 0 1-7.238 1.172c-10.633.298-16.694-5.763-16.694-17.292V46.994h-6.658a2.787 2.787 0 0 1-2.786-2.786v-3.275a2.787 2.787 0 0 1 2.786-2.785h6.658V27.535a2.786 2.786 0 0 1 2.491-2.771l4.764-.504a2.786 2.786 0 0 1 3.08 2.772h.009z"/></svg>