<svg xmlns="http://www.w3.org/2000/svg" width="145" height="32" fill="none"><path fill="#fff" fill-rule="evenodd" d="M32 16c0 8.837-7.163 16-16 16S0 24.837 0 16 7.163 0 16 0s16 7.163 16 16zM7.275 18.312h4.248c.127 0 .22.119.189.241l-2.195 8.908c-.047.19.183.322.323.187L24.643 13.4a.194.194 0 0 0-.135-.335h-5.196a.195.195 0 0 1-.154-.313l4.865-6.31a.194.194 0 0 0-.154-.314h-9.958L7.106 18.02c-.075.13.02.291.169.291z" clip-rule="evenodd"/><path fill="#fff" d="M44.814 6.4v18.107H41.54V6.4h3.274zm6.599 10.15v7.957h-3.195v-13.58h3.053v2.307h.16a3.879 3.879 0 0 1 1.49-1.812c.689-.448 1.539-.672 2.55-.672.936 0 1.751.2 2.445.601.7.4 1.242.981 1.624 1.742.388.76.58 1.683.574 2.767v8.647h-3.195v-8.152c0-.907-.235-1.618-.706-2.13-.465-.513-1.109-.77-1.932-.77-.56 0-1.056.124-1.492.372-.43.241-.768.592-1.015 1.052-.24.46-.361 1.017-.361 1.67zm22.661-2.034-2.912.319a2.346 2.346 0 0 0-.433-.831c-.2-.26-.47-.469-.811-.628-.342-.16-.76-.239-1.254-.239-.664 0-1.223.144-1.676.433-.447.29-.668.663-.662 1.123-.006.395.138.716.432.964.3.248.795.45 1.483.61l2.312.495c1.282.277 2.236.716 2.86 1.317.629.602.946 1.389.952 2.361-.006.855-.256 1.61-.75 2.264-.488.648-1.168 1.155-2.038 1.52-.871.366-1.871.549-3 .549-1.66 0-2.995-.348-4.007-1.044-1.012-.701-1.615-1.677-1.81-2.926l3.116-.301c.141.613.441 1.076.9 1.388.459.313 1.056.469 1.791.469.76 0 1.368-.156 1.827-.469.465-.312.697-.698.697-1.158 0-.39-.15-.71-.45-.964-.294-.253-.753-.448-1.376-.583l-2.312-.487c-1.3-.27-2.263-.728-2.886-1.37-.624-.648-.932-1.468-.927-2.458-.005-.837.221-1.562.68-2.175.465-.619 1.109-1.096 1.932-1.432.83-.342 1.786-.513 2.868-.513 1.589 0 2.839.339 3.75 1.017.919.678 1.486 1.594 1.704 2.75zm9.694-3.589v2.475h-7.792v-2.475h7.792zm-5.869-3.254h3.195v12.75c0 .43.065.76.194.99.135.224.312.377.53.46.217.082.458.123.723.123.2 0 .383-.014.547-.044.17-.03.3-.056.389-.08l.538 2.503c-.17.059-.415.123-.733.194a6.05 6.05 0 0 1-1.147.124c-.8.023-1.52-.097-2.162-.363a3.364 3.364 0 0 1-1.526-1.255c-.371-.566-.553-1.273-.548-2.122V7.673zM90.34 24.781c-.859 0-1.633-.153-2.321-.46a3.79 3.79 0 0 1-1.624-1.379c-.394-.607-.59-1.355-.59-2.245 0-.767.14-1.4.423-1.901a3.282 3.282 0 0 1 1.156-1.203 5.826 5.826 0 0 1 1.65-.68c.618-.16 1.256-.275 1.915-.345a75.426 75.426 0 0 0 1.932-.221c.495-.071.853-.177 1.077-.319.23-.147.344-.374.344-.68v-.054c0-.666-.197-1.181-.591-1.547-.394-.365-.962-.548-1.703-.548-.783 0-1.403.17-1.862.513-.453.342-.76.745-.918 1.211l-2.983-.424c.236-.825.624-1.515 1.165-2.07a5.065 5.065 0 0 1 1.986-1.255c.782-.283 1.647-.424 2.594-.424.653 0 1.303.076 1.95.23a5.48 5.48 0 0 1 1.774.76c.535.348.965.822 1.288 1.424.33.6.495 1.352.495 2.254v9.09h-3.071v-1.866h-.106c-.194.377-.468.73-.82 1.06-.348.325-.786.587-1.316.787-.523.195-1.138.292-1.844.292zm.83-2.351c.64 0 1.197-.127 1.667-.38.47-.26.833-.602 1.086-1.026.258-.425.388-.887.388-1.388v-1.6c-.1.082-.27.158-.512.23-.235.07-.5.132-.794.185-.294.053-.585.1-.874.141-.288.042-.538.077-.75.106a5.561 5.561 0 0 0-1.28.319c-.376.147-.673.353-.89.619-.218.259-.327.595-.327 1.008 0 .589.215 1.034.644 1.335.43.3.977.45 1.641.45zm12.733-5.88v7.957h-3.194v-13.58h3.053v2.307h.159a3.882 3.882 0 0 1 1.491-1.812c.689-.448 1.539-.672 2.551-.672.935 0 1.75.2 2.444.601.7.4 1.241.981 1.624 1.742.388.76.579 1.683.573 2.767v8.647h-3.194v-8.152c0-.907-.236-1.618-.706-2.13-.465-.513-1.109-.77-1.933-.77-.559 0-1.056.124-1.491.372-.43.241-.768.592-1.015 1.052-.241.46-.362 1.017-.362 1.67zm18.717-5.623v2.475h-7.792v-2.475h7.792zm-5.868-3.254h3.194v12.75c0 .43.065.76.194.99.136.224.312.377.53.46.218.082.459.123.724.123.2 0 .382-.014.547-.044.17-.03.3-.056.388-.08l.538 2.503c-.17.059-.414.123-.732.194a5.98 5.98 0 0 1-1.147.124c-.8.023-1.521-.097-2.162-.363a3.358 3.358 0 0 1-1.527-1.255c-.371-.566-.553-1.273-.547-2.122V7.673zM128.778 6.4v18.107h-3.195V6.4h3.195zm5.27 23.2a6.44 6.44 0 0 1-1.209-.106 4.468 4.468 0 0 1-.874-.23l.742-2.493c.464.135.879.2 1.244.194a1.52 1.52 0 0 0 .962-.345c.282-.218.52-.583.715-1.096l.273-.734-4.915-13.863h3.389l3.123 10.256h.142l3.132-10.256h3.398l-5.427 15.225c-.253.719-.589 1.335-1.006 1.848-.418.518-.93.913-1.536 1.184-.6.277-1.318.416-2.153.416z"/></svg>