<svg width="2138" height="432" viewBox="0 0 2138 432" fill="none" xmlns="http://www.w3.org/2000/svg">
<mask id="mask0_25_5" style="mask-type:luminance" maskUnits="userSpaceOnUse" x="0" y="0" width="432" height="432">
<path d="M0 0H432V432H0V0Z" fill="white"/>
</mask>
<g mask="url(#mask0_25_5)">
<path d="M432.011 216C432.011 219.536 431.922 223.068 431.75 226.599C431.578 230.13 431.318 233.656 430.969 237.172C430.625 240.688 430.193 244.198 429.672 247.693C429.151 251.193 428.547 254.672 427.859 258.141C427.172 261.604 426.396 265.052 425.537 268.484C424.677 271.911 423.734 275.318 422.708 278.703C421.682 282.083 420.573 285.438 419.386 288.766C418.193 292.099 416.922 295.396 415.568 298.661C414.214 301.927 412.781 305.156 411.271 308.354C409.761 311.547 408.172 314.703 406.505 317.823C404.839 320.938 403.099 324.016 401.281 327.047C399.464 330.078 397.573 333.063 395.609 336.005C393.646 338.943 391.609 341.833 389.505 344.672C387.396 347.51 385.224 350.297 382.979 353.031C380.74 355.76 378.427 358.438 376.057 361.057C373.682 363.677 371.245 366.234 368.745 368.734C366.245 371.234 363.688 373.672 361.068 376.047C358.448 378.422 355.771 380.729 353.037 382.969C350.307 385.214 347.521 387.385 344.682 389.495C341.844 391.599 338.953 393.635 336.011 395.599C333.073 397.563 330.089 399.453 327.057 401.271C324.026 403.089 320.948 404.828 317.833 406.495C314.714 408.161 311.557 409.75 308.359 411.26C305.167 412.771 301.938 414.203 298.672 415.557C295.401 416.911 292.104 418.182 288.776 419.375C285.448 420.563 282.094 421.672 278.714 422.698C275.328 423.724 271.922 424.667 268.495 425.526C265.063 426.385 261.615 427.161 258.151 427.849C254.682 428.542 251.198 429.146 247.703 429.661C244.208 430.182 240.698 430.615 237.182 430.958C233.662 431.307 230.141 431.568 226.609 431.74C223.078 431.911 219.547 432 216.011 432C212.474 432 208.943 431.911 205.412 431.74C201.88 431.568 198.354 431.307 194.839 430.958C191.318 430.615 187.813 430.182 184.318 429.661C180.818 429.146 177.339 428.542 173.87 427.849C170.401 427.161 166.953 426.385 163.526 425.526C160.099 424.667 156.693 423.724 153.307 422.698C149.927 421.672 146.568 420.563 143.24 419.375C139.912 418.182 136.615 416.911 133.349 415.557C130.083 414.203 126.854 412.771 123.656 411.26C120.464 409.75 117.307 408.161 114.188 406.495C111.073 404.828 107.995 403.089 104.964 401.271C101.932 399.453 98.948 397.563 96.0053 395.599C93.0678 393.635 90.1772 391.599 87.3386 389.495C84.5001 387.385 81.7136 385.214 78.9793 382.969C76.2501 380.729 73.573 378.422 70.9532 376.047C68.3334 373.672 65.7761 371.234 63.2761 368.734C60.7761 366.234 58.3386 363.677 55.9636 361.057C53.5886 358.438 51.2813 355.76 49.0417 353.031C46.797 350.297 44.6251 347.51 42.5157 344.672C40.4115 341.833 38.3751 338.943 36.4115 336.005C34.448 333.063 32.5574 330.078 30.7397 327.047C28.922 324.016 27.1824 320.938 25.5157 317.823C23.849 314.703 22.2605 311.547 20.7501 308.354C19.2345 305.156 17.8074 301.927 16.4532 298.661C15.099 295.396 13.8282 292.099 12.6355 288.766C11.448 285.438 10.3386 282.083 9.31258 278.703C8.28654 275.318 7.34383 271.911 6.48446 268.484C5.62508 265.052 4.84904 261.604 4.16154 258.141C3.46883 254.672 2.86467 251.193 2.34904 247.693C1.82821 244.198 1.39592 240.688 1.05216 237.172C0.703207 233.656 0.442789 230.13 0.270915 226.599C0.0990401 223.068 0.010498 219.536 0.010498 216C0.010498 212.464 0.0990401 208.932 0.270915 205.401C0.442789 201.87 0.703207 198.344 1.05216 194.828C1.39592 191.313 1.82821 187.802 2.34904 184.307C2.86467 180.807 3.46883 177.328 4.16154 173.859C4.84904 170.396 5.62508 166.948 6.48446 163.516C7.34383 160.089 8.28654 156.682 9.31258 153.297C10.3386 149.917 11.448 146.563 12.6355 143.234C13.8282 139.901 15.099 136.604 16.4532 133.339C17.8074 130.073 19.2345 126.844 20.7501 123.646C22.2605 120.453 23.849 117.297 25.5157 114.177C27.1824 111.063 28.922 107.984 30.7397 104.953C32.5574 101.922 34.448 98.9375 36.4115 95.9948C38.3751 93.0573 40.4115 90.1667 42.5157 87.3281C44.6251 84.4896 46.797 81.7031 49.0417 78.9688C51.2813 76.2396 53.5886 73.5625 55.9636 70.9427C58.3386 68.3229 60.7761 65.7656 63.2761 63.2656C65.7761 60.7656 68.3334 58.3281 70.9532 55.9531C73.573 53.5781 76.2501 51.2708 78.9793 49.0313C81.7136 46.7865 84.5001 44.6146 87.3386 42.5052C90.1772 40.401 93.0678 38.3646 96.0053 36.401C98.948 34.4375 101.932 32.5469 104.964 30.7292C107.995 28.9115 111.073 27.1719 114.188 25.5052C117.307 23.8385 120.464 22.25 123.656 20.7396C126.854 19.2292 130.083 17.7969 133.349 16.4427C136.615 15.0885 139.912 13.8177 143.24 12.625C146.568 11.4375 149.927 10.3281 153.307 9.30208C156.693 8.27604 160.099 7.33333 163.526 6.47396C166.953 5.61458 170.401 4.83854 173.87 4.15104C177.339 3.45833 180.818 2.85417 184.318 2.33854C187.813 1.81771 191.318 1.38542 194.839 1.04167C198.354 0.692708 201.88 0.432293 205.412 0.260417C208.943 0.088542 212.474 0 216.011 0C219.547 0 223.078 0.088542 226.609 0.260417C230.141 0.432293 233.662 0.692708 237.182 1.04167C240.698 1.38542 244.208 1.81771 247.703 2.33854C251.198 2.85417 254.682 3.45833 258.151 4.15104C261.615 4.83854 265.063 5.61458 268.495 6.47396C271.922 7.33333 275.328 8.27604 278.714 9.30208C282.094 10.3281 285.448 11.4375 288.776 12.625C292.104 13.8177 295.401 15.0885 298.672 16.4427C301.938 17.7969 305.167 19.2292 308.359 20.7396C311.557 22.25 314.714 23.8385 317.833 25.5052C320.948 27.1719 324.026 28.9115 327.057 30.7292C330.089 32.5469 333.073 34.4375 336.011 36.401C338.953 38.3646 341.844 40.401 344.682 42.5052C347.521 44.6146 350.307 46.7865 353.037 49.0313C355.771 51.2708 358.448 53.5781 361.068 55.9531C363.688 58.3281 366.245 60.7656 368.745 63.2656C371.245 65.7656 373.682 68.3229 376.057 70.9427C378.427 73.5625 380.74 76.2396 382.979 78.9688C385.224 81.7031 387.396 84.4896 389.505 87.3281C391.609 90.1667 393.646 93.0573 395.609 95.9948C397.573 98.9375 399.464 101.922 401.281 104.953C403.099 107.984 404.839 111.063 406.505 114.177C408.172 117.297 409.761 120.453 411.271 123.646C412.781 126.844 414.214 130.073 415.568 133.339C416.922 136.604 418.193 139.901 419.386 143.234C420.573 146.563 421.682 149.917 422.708 153.297C423.734 156.682 424.677 160.089 425.537 163.516C426.396 166.948 427.172 170.396 427.859 173.859C428.547 177.328 429.151 180.807 429.672 184.307C430.193 187.802 430.625 191.313 430.969 194.828C431.318 198.344 431.578 201.87 431.75 205.401C431.922 208.932 432.011 212.464 432.011 216Z" fill="url(#paint0_linear_25_5)"/>
</g>
<path d="M215.37 208.031L342.818 137.677C343.437 137.333 344.083 137.094 344.74 136.948C342.812 135.698 340.521 134.969 338.057 134.969H92.6874C90.552 134.969 88.5468 135.51 86.802 136.464L215.37 208.031Z" fill="white"/>
<path d="M349.62 149.802L218.771 222.063C217.714 222.656 216.542 222.948 215.37 222.948C214.198 222.948 213.026 222.656 211.974 222.063L80.3699 148.797V284.719C80.3699 291.521 85.8855 297.031 92.6876 297.031H338.057C344.854 297.031 350.37 291.521 350.37 284.719V149.307C350.13 149.484 349.886 149.656 349.62 149.802Z" fill="white"/>
<path d="M485.666 219.896C485.666 205.891 488.696 193.434 494.756 182.526C500.816 171.483 509.233 162.932 520.006 156.872C530.914 150.677 543.236 147.58 556.972 147.58C573.805 147.58 588.215 152.024 600.2 160.912C612.185 169.8 620.198 181.92 624.238 197.272H586.262C583.434 191.347 579.394 186.835 574.142 183.738C569.025 180.641 563.167 179.092 556.568 179.092C545.929 179.092 537.311 182.795 530.712 190.202C524.113 197.609 520.814 207.507 520.814 219.896C520.814 232.285 524.113 242.183 530.712 249.59C537.311 256.997 545.929 260.7 556.568 260.7C563.167 260.7 569.025 259.151 574.142 256.054C579.394 252.957 583.434 248.445 586.262 242.52H624.238C620.198 257.872 612.185 269.992 600.2 278.88C588.215 287.633 573.805 292.01 556.972 292.01C543.236 292.01 530.914 288.98 520.006 282.92C509.233 276.725 500.816 268.174 494.756 257.266C488.696 246.358 485.666 233.901 485.666 219.896ZM696.699 292.616C685.657 292.616 675.691 290.259 666.803 285.546C658.05 280.833 651.115 274.099 645.997 265.346C641.015 256.593 638.523 246.358 638.523 234.642C638.523 223.061 641.082 212.893 646.199 204.14C651.317 195.252 658.319 188.451 667.207 183.738C676.095 179.025 686.061 176.668 697.103 176.668C708.146 176.668 718.111 179.025 726.999 183.738C735.887 188.451 742.89 195.252 748.007 204.14C753.125 212.893 755.683 223.061 755.683 234.642C755.683 246.223 753.057 256.458 747.805 265.346C742.688 274.099 735.618 280.833 726.595 285.546C717.707 290.259 707.742 292.616 696.699 292.616ZM696.699 262.72C703.298 262.72 708.887 260.296 713.465 255.448C718.179 250.6 720.535 243.665 720.535 234.642C720.535 225.619 718.246 218.684 713.667 213.836C709.223 208.988 703.702 206.564 697.103 206.564C690.37 206.564 684.781 208.988 680.337 213.836C675.893 218.549 673.671 225.485 673.671 234.642C673.671 243.665 675.826 250.6 680.135 255.448C684.579 260.296 690.101 262.72 696.699 262.72ZM808.55 141.52V291H774.008V141.52H808.55ZM826.715 234.44C826.715 222.859 828.869 212.691 833.179 203.938C837.623 195.185 843.615 188.451 851.157 183.738C858.698 179.025 867.115 176.668 876.407 176.668C883.813 176.668 890.547 178.217 896.607 181.314C902.801 184.411 907.649 188.586 911.151 193.838V141.52H945.693V291H911.151V274.84C907.919 280.227 903.273 284.536 897.213 287.768C891.287 291 884.352 292.616 876.407 292.616C867.115 292.616 858.698 290.259 851.157 285.546C843.615 280.698 837.623 273.897 833.179 265.144C828.869 256.256 826.715 246.021 826.715 234.44ZM911.151 234.642C911.151 226.023 908.727 219.223 903.879 214.24C899.165 209.257 893.375 206.766 886.507 206.766C879.639 206.766 873.781 209.257 868.933 214.24C864.219 219.088 861.863 225.821 861.863 234.44C861.863 243.059 864.219 249.927 868.933 255.044C873.781 260.027 879.639 262.518 886.507 262.518C893.375 262.518 899.165 260.027 903.879 255.044C908.727 250.061 911.151 243.261 911.151 234.642Z" fill="url(#paint1_linear_25_5)"/>
<path d="M1131.27 149.196V291H1096.73V205.958L1065.02 291H1037.14L1005.22 205.756V291H970.682V149.196H1011.49L1051.28 247.368L1090.67 149.196H1131.27ZM1262.36 232.824C1262.36 236.056 1262.16 239.423 1261.76 242.924H1183.58C1184.12 249.927 1186.34 255.313 1190.25 259.084C1194.29 262.72 1199.21 264.538 1205 264.538C1213.61 264.538 1219.61 260.902 1222.97 253.63H1259.74C1257.85 261.037 1254.42 267.703 1249.44 273.628C1244.59 279.553 1238.46 284.199 1231.05 287.566C1223.65 290.933 1215.37 292.616 1206.21 292.616C1195.17 292.616 1185.33 290.259 1176.72 285.546C1168.1 280.833 1161.36 274.099 1156.52 265.346C1151.67 256.593 1149.24 246.358 1149.24 234.642C1149.24 222.926 1151.6 212.691 1156.31 203.938C1161.16 195.185 1167.9 188.451 1176.51 183.738C1185.13 179.025 1195.03 176.668 1206.21 176.668C1217.12 176.668 1226.81 178.957 1235.3 183.536C1243.78 188.115 1250.38 194.646 1255.09 203.13C1259.94 211.614 1262.36 221.512 1262.36 232.824ZM1227.01 223.734C1227.01 217.809 1224.99 213.095 1220.95 209.594C1216.91 206.093 1211.86 204.342 1205.8 204.342C1200.01 204.342 1195.1 206.025 1191.06 209.392C1187.15 212.759 1184.73 217.539 1183.79 223.734H1227.01ZM1326.44 292.616C1316.61 292.616 1307.86 290.933 1300.18 287.566C1292.5 284.199 1286.44 279.621 1282 273.83C1277.56 267.905 1275.07 261.306 1274.53 254.034H1308.66C1309.07 257.939 1310.89 261.104 1314.12 263.528C1317.35 265.952 1321.32 267.164 1326.04 267.164C1330.35 267.164 1333.65 266.356 1335.93 264.74C1338.36 262.989 1339.57 260.767 1339.57 258.074C1339.57 254.842 1337.89 252.485 1334.52 251.004C1331.15 249.388 1325.7 247.637 1318.16 245.752C1310.08 243.867 1303.35 241.914 1297.96 239.894C1292.57 237.739 1287.93 234.44 1284.02 229.996C1280.12 225.417 1278.16 219.29 1278.16 211.614C1278.16 205.15 1279.91 199.292 1283.41 194.04C1287.05 188.653 1292.3 184.411 1299.17 181.314C1306.17 178.217 1314.46 176.668 1324.02 176.668C1338.16 176.668 1349.27 180.169 1357.35 187.172C1365.56 194.175 1370.27 203.467 1371.49 215.048H1339.57C1339.03 211.143 1337.28 208.045 1334.32 205.756C1331.49 203.467 1327.72 202.322 1323.01 202.322C1318.97 202.322 1315.87 203.13 1313.71 204.746C1311.56 206.227 1310.48 208.315 1310.48 211.008C1310.48 214.24 1312.17 216.664 1315.53 218.28C1319.03 219.896 1324.42 221.512 1331.69 223.128C1340.04 225.283 1346.84 227.437 1352.09 229.592C1357.35 231.612 1361.93 234.979 1365.83 239.692C1369.87 244.271 1371.96 250.465 1372.09 258.276C1372.09 264.875 1370.21 270.8 1366.44 276.052C1362.8 281.169 1357.48 285.209 1350.48 288.172C1343.61 291.135 1335.6 292.616 1326.44 292.616ZM1439.08 292.616C1429.25 292.616 1420.5 290.933 1412.82 287.566C1405.14 284.199 1399.08 279.621 1394.64 273.83C1390.2 267.905 1387.7 261.306 1387.17 254.034H1421.3C1421.71 257.939 1423.53 261.104 1426.76 263.528C1429.99 265.952 1433.96 267.164 1438.68 267.164C1442.98 267.164 1446.28 266.356 1448.57 264.74C1451 262.989 1452.21 260.767 1452.21 258.074C1452.21 254.842 1450.53 252.485 1447.16 251.004C1443.79 249.388 1438.34 247.637 1430.8 245.752C1422.72 243.867 1415.98 241.914 1410.6 239.894C1405.21 237.739 1400.56 234.44 1396.66 229.996C1392.75 225.417 1390.8 219.29 1390.8 211.614C1390.8 205.15 1392.55 199.292 1396.05 194.04C1399.69 188.653 1404.94 184.411 1411.81 181.314C1418.81 178.217 1427.09 176.668 1436.66 176.668C1450.8 176.668 1461.91 180.169 1469.99 187.172C1478.2 194.175 1482.91 203.467 1484.13 215.048H1452.21C1451.67 211.143 1449.92 208.045 1446.96 205.756C1444.13 203.467 1440.36 202.322 1435.65 202.322C1431.61 202.322 1428.51 203.13 1426.35 204.746C1424.2 206.227 1423.12 208.315 1423.12 211.008C1423.12 214.24 1424.8 216.664 1428.17 218.28C1431.67 219.896 1437.06 221.512 1444.33 223.128C1452.68 225.283 1459.48 227.437 1464.73 229.592C1469.99 231.612 1474.56 234.979 1478.47 239.692C1482.51 244.271 1484.6 250.465 1484.73 258.276C1484.73 264.875 1482.85 270.8 1479.08 276.052C1475.44 281.169 1470.12 285.209 1463.12 288.172C1456.25 291.135 1448.24 292.616 1439.08 292.616ZM1499 234.44C1499 222.859 1501.15 212.691 1505.46 203.938C1509.9 195.185 1515.9 188.451 1523.44 183.738C1530.98 179.025 1539.4 176.668 1548.69 176.668C1556.63 176.668 1563.57 178.284 1569.49 181.516C1575.55 184.748 1580.2 188.99 1583.43 194.242V178.284H1617.97V291H1583.43V275.042C1580.07 280.294 1575.35 284.536 1569.29 287.768C1563.37 291 1556.43 292.616 1548.49 292.616C1539.33 292.616 1530.98 290.259 1523.44 285.546C1515.9 280.698 1509.9 273.897 1505.46 265.144C1501.15 256.256 1499 246.021 1499 234.44ZM1583.43 234.642C1583.43 226.023 1581.01 219.223 1576.16 214.24C1571.45 209.257 1565.66 206.766 1558.79 206.766C1551.92 206.766 1546.06 209.257 1541.21 214.24C1536.5 219.088 1534.14 225.821 1534.14 234.44C1534.14 243.059 1536.5 249.927 1541.21 255.044C1546.06 260.027 1551.92 262.518 1558.79 262.518C1565.66 262.518 1571.45 260.027 1576.16 255.044C1581.01 250.061 1583.43 243.261 1583.43 234.642ZM1685.79 176.668C1693.73 176.668 1700.67 178.284 1706.59 181.516C1712.65 184.748 1717.3 188.99 1720.53 194.242V178.284H1755.07V290.798C1755.07 301.167 1752.99 310.527 1748.81 318.876C1744.77 327.36 1738.51 334.093 1730.03 339.076C1721.68 344.059 1711.24 346.55 1698.72 346.55C1682.02 346.55 1668.48 342.577 1658.11 334.632C1647.74 326.821 1641.82 316.183 1640.34 302.716H1674.48C1675.55 307.025 1678.11 310.392 1682.15 312.816C1686.19 315.375 1691.17 316.654 1697.1 316.654C1704.24 316.654 1709.89 314.567 1714.07 310.392C1718.38 306.352 1720.53 299.821 1720.53 290.798V274.84C1717.16 280.092 1712.52 284.401 1706.59 287.768C1700.67 291 1693.73 292.616 1685.79 292.616C1676.5 292.616 1668.08 290.259 1660.54 285.546C1653 280.698 1647 273.897 1642.56 265.144C1638.25 256.256 1636.1 246.021 1636.1 234.44C1636.1 222.859 1638.25 212.691 1642.56 203.938C1647 195.185 1653 188.451 1660.54 183.738C1668.08 179.025 1676.5 176.668 1685.79 176.668ZM1720.53 234.642C1720.53 226.023 1718.11 219.223 1713.26 214.24C1708.55 209.257 1702.76 206.766 1695.89 206.766C1689.02 206.766 1683.16 209.257 1678.31 214.24C1673.6 219.088 1671.24 225.821 1671.24 234.44C1671.24 243.059 1673.6 249.927 1678.31 255.044C1683.16 260.027 1689.02 262.518 1695.89 262.518C1702.76 262.518 1708.55 260.027 1713.26 255.044C1718.11 250.061 1720.53 243.261 1720.53 234.642ZM1886.32 232.824C1886.32 236.056 1886.11 239.423 1885.71 242.924H1807.54C1808.07 249.927 1810.3 255.313 1814.2 259.084C1818.24 262.72 1823.16 264.538 1828.95 264.538C1837.57 264.538 1843.56 260.902 1846.93 253.63H1883.69C1881.8 261.037 1878.37 267.703 1873.39 273.628C1868.54 279.553 1862.41 284.199 1855.01 287.566C1847.6 290.933 1839.32 292.616 1830.16 292.616C1819.12 292.616 1809.29 290.259 1800.67 285.546C1792.05 280.833 1785.32 274.099 1780.47 265.346C1775.62 256.593 1773.2 246.358 1773.2 234.642C1773.2 222.926 1775.55 212.691 1780.27 203.938C1785.11 195.185 1791.85 188.451 1800.47 183.738C1809.08 179.025 1818.98 176.668 1830.16 176.668C1841.07 176.668 1850.76 178.957 1859.25 183.536C1867.73 188.115 1874.33 194.646 1879.04 203.13C1883.89 211.614 1886.32 221.512 1886.32 232.824ZM1850.97 223.734C1850.97 217.809 1848.95 213.095 1844.91 209.594C1840.87 206.093 1835.82 204.342 1829.76 204.342C1823.96 204.342 1819.05 206.025 1815.01 209.392C1811.1 212.759 1808.68 217.539 1807.74 223.734H1850.97ZM1920.7 292.616C1914.64 292.616 1909.66 290.865 1905.75 287.364C1901.98 283.728 1900.09 279.284 1900.09 274.032C1900.09 268.645 1901.98 264.134 1905.75 260.498C1909.66 256.862 1914.64 255.044 1920.7 255.044C1926.62 255.044 1931.47 256.862 1935.24 260.498C1939.15 264.134 1941.1 268.645 1941.1 274.032C1941.1 279.284 1939.15 283.728 1935.24 287.364C1931.47 290.865 1926.62 292.616 1920.7 292.616ZM1978.92 166.568C1972.86 166.568 1967.88 164.817 1963.97 161.316C1960.2 157.68 1958.32 153.236 1958.32 147.984C1958.32 142.597 1960.2 138.153 1963.97 134.652C1967.88 131.016 1972.86 129.198 1978.92 129.198C1984.84 129.198 1989.69 131.016 1993.46 134.652C1997.37 138.153 1999.32 142.597 1999.32 147.984C1999.32 153.236 1997.37 157.68 1993.46 161.316C1989.69 164.817 1984.84 166.568 1978.92 166.568ZM1996.09 178.284V291H1961.55V178.284H1996.09ZM2072.43 292.616C2061.39 292.616 2051.42 290.259 2042.53 285.546C2033.78 280.833 2026.84 274.099 2021.73 265.346C2016.74 256.593 2014.25 246.358 2014.25 234.642C2014.25 223.061 2016.81 212.893 2021.93 204.14C2027.05 195.252 2034.05 188.451 2042.94 183.738C2051.83 179.025 2061.79 176.668 2072.83 176.668C2083.88 176.668 2093.84 179.025 2102.73 183.738C2111.62 188.451 2118.62 195.252 2123.74 204.14C2128.85 212.893 2131.41 223.061 2131.41 234.642C2131.41 246.223 2128.79 256.458 2123.54 265.346C2118.42 274.099 2111.35 280.833 2102.33 285.546C2093.44 290.259 2083.47 292.616 2072.43 292.616ZM2072.43 262.72C2079.03 262.72 2084.62 260.296 2089.2 255.448C2093.91 250.6 2096.27 243.665 2096.27 234.642C2096.27 225.619 2093.98 218.684 2089.4 213.836C2084.95 208.988 2079.43 206.564 2072.83 206.564C2066.1 206.564 2060.51 208.988 2056.07 213.836C2051.62 218.549 2049.4 225.485 2049.4 234.642C2049.4 243.665 2051.56 250.6 2055.87 255.448C2060.31 260.296 2065.83 262.72 2072.43 262.72Z" fill="black"/>
<defs>
<linearGradient id="paint0_linear_25_5" x1="35.5105" y1="194.5" x2="481.511" y2="191" gradientUnits="userSpaceOnUse">
<stop stop-color="#920DE9"/>
<stop offset="1" stop-color="#1536F1"/>
</linearGradient>
<linearGradient id="paint1_linear_25_5" x1="541.183" y1="220" x2="998.171" y2="220" gradientUnits="userSpaceOnUse">
<stop stop-color="#920DE9"/>
<stop offset="1" stop-color="#1536F1"/>
</linearGradient>
</defs>
</svg>
