<svg xmlns="http://www.w3.org/2000/svg" width="2138" height="432" fill="none"><mask id="a" width="432" height="432" x="0" y="0" maskUnits="userSpaceOnUse" style="mask-type:luminance"><path fill="#fff" d="M0 0h432v432H0V0z"/></mask><g mask="url(#a)"><path fill="url(#b)" d="M432.01 216c0 3.536-.088 7.068-.26 10.599a210.962 210.962 0 0 1-.781 10.573 210.188 210.188 0 0 1-1.297 10.521c-.521 3.5-1.125 6.979-1.813 10.448a213.361 213.361 0 0 1-2.323 10.343 217.718 217.718 0 0 1-2.828 10.219 220.065 220.065 0 0 1-3.323 10.063 213.528 213.528 0 0 1-3.817 9.895 221.425 221.425 0 0 1-4.297 9.693 216.817 216.817 0 0 1-9.99 18.693 219.216 219.216 0 0 1-5.672 8.958c-1.963 2.938-4 5.828-6.104 8.667a219 219 0 0 1-6.526 8.359 219.918 219.918 0 0 1-6.922 8.026 217.153 217.153 0 0 1-14.989 14.99 211.356 211.356 0 0 1-8.032 6.922 215.188 215.188 0 0 1-8.354 6.526 214.344 214.344 0 0 1-8.672 6.104 215.668 215.668 0 0 1-8.953 5.672 214.967 214.967 0 0 1-18.698 9.989 216.271 216.271 0 0 1-9.687 4.297 219.698 219.698 0 0 1-9.896 3.818 219.66 219.66 0 0 1-10.063 3.323A216.07 216.07 0 0 1 216.01 432c-3.536 0-7.067-.089-10.599-.26a210.965 210.965 0 0 1-10.573-.782c-3.52-.343-7.026-.776-10.52-1.297-3.5-.515-6.98-1.119-10.448-1.812a212.844 212.844 0 0 1-10.344-2.323 218.056 218.056 0 0 1-20.287-6.151 216.725 216.725 0 0 1-38.276-18.104 219.766 219.766 0 0 1-8.958-5.672c-2.938-1.964-5.828-4-8.667-6.104a219.868 219.868 0 0 1-8.359-6.526 215.621 215.621 0 0 1-8.026-6.922 216.465 216.465 0 0 1-7.677-7.313 214.76 214.76 0 0 1-14.234-15.703 219.506 219.506 0 0 1-6.526-8.359 217.77 217.77 0 0 1-6.105-8.667 216.706 216.706 0 0 1-15.661-27.651 213.914 213.914 0 0 1-4.297-9.693 214.106 214.106 0 0 1-3.818-9.895 220.755 220.755 0 0 1-3.323-10.063 218.135 218.135 0 0 1-2.828-10.219c-.86-3.432-1.635-6.88-2.323-10.343a208.519 208.519 0 0 1-1.812-10.448 210.188 210.188 0 0 1-1.297-10.521c-.349-3.516-.61-7.042-.781-10.573A217.785 217.785 0 0 1 .01 216c0-3.536.088-7.068.26-10.599.172-3.531.432-7.057.78-10.573.345-3.515.777-7.026 1.298-10.521.515-3.5 1.12-6.979 1.812-10.448a214.708 214.708 0 0 1 2.323-10.343c.86-3.427 1.802-6.834 2.828-10.219a221.163 221.163 0 0 1 3.323-10.063 214.106 214.106 0 0 1 3.818-9.895 213.914 213.914 0 0 1 4.297-9.693 217.377 217.377 0 0 1 4.765-9.469 217.325 217.325 0 0 1 5.224-9.224 219.92 219.92 0 0 1 5.672-8.958c1.964-2.938 4-5.828 6.105-8.667a219.358 219.358 0 0 1 6.526-8.36 215.246 215.246 0 0 1 14.234-15.702 215.147 215.147 0 0 1 15.703-14.234 219.465 219.465 0 0 1 8.36-6.527 217.86 217.86 0 0 1 8.666-6.104 219.98 219.98 0 0 1 8.958-5.672 218.06 218.06 0 0 1 9.224-5.224 217.263 217.263 0 0 1 19.162-9.062 216.138 216.138 0 0 1 9.89-3.818 221.31 221.31 0 0 1 10.068-3.323 218.461 218.461 0 0 1 10.219-2.828c3.427-.86 6.875-1.635 10.344-2.323a208.332 208.332 0 0 1 10.448-1.812c3.494-.521 7-.954 10.52-1.297 3.516-.35 7.042-.61 10.573-.782 3.533-.17 7.064-.26 10.6-.26 3.537 0 7.068.089 10.599.26a211.3 211.3 0 0 1 10.573.782c3.516.343 7.026.776 10.521 1.297a215.006 215.006 0 0 1 31.01 6.964 220.298 220.298 0 0 1 10.063 3.322 219.095 219.095 0 0 1 9.896 3.818 217.187 217.187 0 0 1 9.687 4.297 214.648 214.648 0 0 1 18.698 9.99 215.873 215.873 0 0 1 8.953 5.671 213.75 213.75 0 0 1 17.026 12.63 210.9 210.9 0 0 1 8.032 6.922 217.14 217.14 0 0 1 21.911 23.016 218.853 218.853 0 0 1 6.526 8.36 217.518 217.518 0 0 1 6.104 8.666 219.704 219.704 0 0 1 5.672 8.958 217.437 217.437 0 0 1 5.224 9.224 217.608 217.608 0 0 1 4.766 9.469 221.425 221.425 0 0 1 4.297 9.693 213.528 213.528 0 0 1 3.817 9.895 220.472 220.472 0 0 1 3.323 10.063 217.718 217.718 0 0 1 2.828 10.219c.86 3.432 1.636 6.88 2.323 10.343a220.724 220.724 0 0 1 1.813 10.448c.521 3.495.953 7.006 1.297 10.521.349 3.516.609 7.042.781 10.573.172 3.531.26 7.063.26 10.599z"/></g><path fill="#fff" d="m215.369 208.031 127.448-70.354a7.153 7.153 0 0 1 1.922-.729 12.232 12.232 0 0 0-6.682-1.979H92.687c-2.135 0-4.14.541-5.885 1.495l128.567 71.567z"/><path fill="#fff" d="m349.62 149.802-130.849 72.261a6.941 6.941 0 0 1-3.401.885 6.909 6.909 0 0 1-3.396-.885L80.37 148.797v135.922c0 6.802 5.516 12.312 12.318 12.312h245.37c6.796 0 12.312-5.51 12.312-12.312V149.307a6.614 6.614 0 0 1-.75.495z"/><path fill="url(#c)" d="M485.666 219.896c0-14.005 3.03-26.462 9.09-37.37 6.06-11.043 14.477-19.594 25.25-25.654 10.908-6.195 23.23-9.292 36.966-9.292 16.833 0 31.243 4.444 43.228 13.332 11.985 8.888 19.998 21.008 24.038 36.36h-37.976c-2.828-5.925-6.868-10.437-12.12-13.534-5.117-3.097-10.975-4.646-17.574-4.646-10.639 0-19.257 3.703-25.856 11.11s-9.898 17.305-9.898 29.694 3.299 22.287 9.898 29.694 15.217 11.11 25.856 11.11c6.599 0 12.457-1.549 17.574-4.646 5.252-3.097 9.292-7.609 12.12-13.534h37.976c-4.04 15.352-12.053 27.472-24.038 36.36-11.985 8.753-26.395 13.13-43.228 13.13-13.736 0-26.058-3.03-36.966-9.09-10.773-6.195-19.19-14.746-25.25-25.654-6.06-10.908-9.09-23.365-9.09-37.37zm211.033 72.72c-11.042 0-21.008-2.357-29.896-7.07-8.753-4.713-15.688-11.447-20.806-20.2-4.982-8.753-7.474-18.988-7.474-30.704 0-11.581 2.559-21.749 7.676-30.502 5.118-8.888 12.12-15.689 21.008-20.402 8.888-4.713 18.854-7.07 29.896-7.07 11.043 0 21.008 2.357 29.896 7.07 8.888 4.713 15.891 11.514 21.008 20.402 5.118 8.753 7.676 18.921 7.676 30.502s-2.626 21.816-7.878 30.704c-5.117 8.753-12.187 15.487-21.21 20.2-8.888 4.713-18.853 7.07-29.896 7.07zm0-29.896c6.599 0 12.188-2.424 16.766-7.272 4.714-4.848 7.07-11.783 7.07-20.806 0-9.023-2.289-15.958-6.868-20.806-4.444-4.848-9.965-7.272-16.564-7.272-6.733 0-12.322 2.424-16.766 7.272-4.444 4.713-6.666 11.649-6.666 20.806 0 9.023 2.155 15.958 6.464 20.806 4.444 4.848 9.966 7.272 16.564 7.272zm111.851-121.2V291h-34.542V141.52h34.542zm18.165 92.92c0-11.581 2.154-21.749 6.464-30.502 4.444-8.753 10.436-15.487 17.978-20.2 7.541-4.713 15.958-7.07 25.25-7.07 7.406 0 14.14 1.549 20.2 4.646 6.194 3.097 11.042 7.272 14.544 12.524V141.52h34.542V291h-34.542v-16.16c-3.232 5.387-7.878 9.696-13.938 12.928-5.926 3.232-12.861 4.848-20.806 4.848-9.292 0-17.709-2.357-25.25-7.07-7.542-4.848-13.534-11.649-17.978-20.402-4.31-8.888-6.464-19.123-6.464-30.704zm84.436.202c0-8.619-2.424-15.419-7.272-20.402-4.714-4.983-10.504-7.474-17.372-7.474s-12.726 2.491-17.574 7.474c-4.714 4.848-7.07 11.581-7.07 20.2s2.356 15.487 7.07 20.604c4.848 4.983 10.706 7.474 17.574 7.474 6.868 0 12.658-2.491 17.372-7.474 4.848-4.983 7.272-11.783 7.272-20.402z"/><path fill="#fff" d="M1131.27 149.196V291h-34.54v-85.042L1065.02 291h-27.88l-31.92-85.244V291h-34.538V149.196h40.808l39.79 98.172 39.39-98.172h40.6zm131.09 83.628c0 3.232-.2 6.599-.6 10.1h-78.18c.54 7.003 2.76 12.389 6.67 16.16 4.04 3.636 8.96 5.454 14.75 5.454 8.61 0 14.61-3.636 17.97-10.908h36.77c-1.89 7.407-5.32 14.073-10.3 19.998-4.85 5.925-10.98 10.571-18.39 13.938-7.4 3.367-15.68 5.05-24.84 5.05-11.04 0-20.88-2.357-29.49-7.07-8.62-4.713-15.36-11.447-20.2-20.2-4.85-8.753-7.28-18.988-7.28-30.704 0-11.716 2.36-21.951 7.07-30.704 4.85-8.753 11.59-15.487 20.2-20.2 8.62-4.713 18.52-7.07 29.7-7.07 10.91 0 20.6 2.289 29.09 6.868 8.48 4.579 15.08 11.11 19.79 19.594 4.85 8.484 7.27 18.382 7.27 29.694zm-35.35-9.09c0-5.925-2.02-10.639-6.06-14.14-4.04-3.501-9.09-5.252-15.15-5.252-5.79 0-10.7 1.683-14.74 5.05-3.91 3.367-6.33 8.147-7.27 14.342h43.22zm99.43 68.882c-9.83 0-18.58-1.683-26.26-5.05-7.68-3.367-13.74-7.945-18.18-13.736-4.44-5.925-6.93-12.524-7.47-19.796h34.13c.41 3.905 2.23 7.07 5.46 9.494 3.23 2.424 7.2 3.636 11.92 3.636 4.31 0 7.61-.808 9.89-2.424 2.43-1.751 3.64-3.973 3.64-6.666 0-3.232-1.68-5.589-5.05-7.07-3.37-1.616-8.82-3.367-16.36-5.252-8.08-1.885-14.81-3.838-20.2-5.858-5.39-2.155-10.03-5.454-13.94-9.898-3.9-4.579-5.86-10.706-5.86-18.382 0-6.464 1.75-12.322 5.25-17.574 3.64-5.387 8.89-9.629 15.76-12.726 7-3.097 15.29-4.646 24.85-4.646 14.14 0 25.25 3.501 33.33 10.504 8.21 7.003 12.92 16.295 14.14 27.876h-31.92c-.54-3.905-2.29-7.003-5.25-9.292-2.83-2.289-6.6-3.434-11.31-3.434-4.04 0-7.14.808-9.3 2.424-2.15 1.481-3.23 3.569-3.23 6.262 0 3.232 1.69 5.656 5.05 7.272 3.5 1.616 8.89 3.232 16.16 4.848 8.35 2.155 15.15 4.309 20.4 6.464 5.26 2.02 9.84 5.387 13.74 10.1 4.04 4.579 6.13 10.773 6.26 18.584 0 6.599-1.88 12.524-5.65 17.776-3.64 5.117-8.96 9.157-15.96 12.12-6.87 2.963-14.88 4.444-24.04 4.444zm112.64 0c-9.83 0-18.58-1.683-26.26-5.05-7.68-3.367-13.74-7.945-18.18-13.736-4.44-5.925-6.94-12.524-7.47-19.796h34.13c.41 3.905 2.23 7.07 5.46 9.494 3.23 2.424 7.2 3.636 11.92 3.636 4.3 0 7.6-.808 9.89-2.424 2.43-1.751 3.64-3.973 3.64-6.666 0-3.232-1.68-5.589-5.05-7.07-3.37-1.616-8.82-3.367-16.36-5.252-8.08-1.885-14.82-3.838-20.2-5.858-5.39-2.155-10.04-5.454-13.94-9.898-3.91-4.579-5.86-10.706-5.86-18.382 0-6.464 1.75-12.322 5.25-17.574 3.64-5.387 8.89-9.629 15.76-12.726 7-3.097 15.28-4.646 24.85-4.646 14.14 0 25.25 3.501 33.33 10.504 8.21 7.003 12.92 16.295 14.14 27.876h-31.92c-.54-3.905-2.29-7.003-5.25-9.292-2.83-2.289-6.6-3.434-11.31-3.434-4.04 0-7.14.808-9.3 2.424-2.15 1.481-3.23 3.569-3.23 6.262 0 3.232 1.68 5.656 5.05 7.272 3.5 1.616 8.89 3.232 16.16 4.848 8.35 2.155 15.15 4.309 20.4 6.464 5.26 2.02 9.83 5.387 13.74 10.1 4.04 4.579 6.13 10.773 6.26 18.584 0 6.599-1.88 12.524-5.65 17.776-3.64 5.117-8.96 9.157-15.96 12.12-6.87 2.963-14.88 4.444-24.04 4.444zM1499 234.44c0-11.581 2.15-21.749 6.46-30.502 4.44-8.753 10.44-15.487 17.98-20.2 7.54-4.713 15.96-7.07 25.25-7.07 7.94 0 14.88 1.616 20.8 4.848 6.06 3.232 10.71 7.474 13.94 12.726v-15.958h34.54V291h-34.54v-15.958c-3.36 5.252-8.08 9.494-14.14 12.726-5.92 3.232-12.86 4.848-20.8 4.848-9.16 0-17.51-2.357-25.05-7.07-7.54-4.848-13.54-11.649-17.98-20.402-4.31-8.888-6.46-19.123-6.46-30.704zm84.43.202c0-8.619-2.42-15.419-7.27-20.402-4.71-4.983-10.5-7.474-17.37-7.474-6.87 0-12.73 2.491-17.58 7.474-4.71 4.848-7.07 11.581-7.07 20.2s2.36 15.487 7.07 20.604c4.85 4.983 10.71 7.474 17.58 7.474 6.87 0 12.66-2.491 17.37-7.474 4.85-4.983 7.27-11.783 7.27-20.402zm102.36-57.974c7.94 0 14.88 1.616 20.8 4.848 6.06 3.232 10.71 7.474 13.94 12.726v-15.958h34.54v112.514c0 10.369-2.08 19.729-6.26 28.078-4.04 8.484-10.3 15.217-18.78 20.2-8.35 4.983-18.79 7.474-31.31 7.474-16.7 0-30.24-3.973-40.61-11.918-10.37-7.811-16.29-18.449-17.77-31.916h34.14c1.07 4.309 3.63 7.676 7.67 10.1 4.04 2.559 9.02 3.838 14.95 3.838 7.14 0 12.79-2.087 16.97-6.262 4.31-4.04 6.46-10.571 6.46-19.594V274.84c-3.37 5.252-8.01 9.561-13.94 12.928-5.92 3.232-12.86 4.848-20.8 4.848-9.29 0-17.71-2.357-25.25-7.07-7.54-4.848-13.54-11.649-17.98-20.402-4.31-8.888-6.46-19.123-6.46-30.704s2.15-21.749 6.46-30.502c4.44-8.753 10.44-15.487 17.98-20.2 7.54-4.713 15.96-7.07 25.25-7.07zm34.74 57.974c0-8.619-2.42-15.419-7.27-20.402-4.71-4.983-10.5-7.474-17.37-7.474-6.87 0-12.73 2.491-17.58 7.474-4.71 4.848-7.07 11.581-7.07 20.2s2.36 15.487 7.07 20.604c4.85 4.983 10.71 7.474 17.58 7.474 6.87 0 12.66-2.491 17.37-7.474 4.85-4.983 7.27-11.783 7.27-20.402zm165.79-1.818c0 3.232-.21 6.599-.61 10.1h-78.17c.53 7.003 2.76 12.389 6.66 16.16 4.04 3.636 8.96 5.454 14.75 5.454 8.62 0 14.61-3.636 17.98-10.908h36.76c-1.89 7.407-5.32 14.073-10.3 19.998-4.85 5.925-10.98 10.571-18.38 13.938-7.41 3.367-15.69 5.05-24.85 5.05-11.04 0-20.87-2.357-29.49-7.07-8.62-4.713-15.35-11.447-20.2-20.2s-7.27-18.988-7.27-30.704c0-11.716 2.35-21.951 7.07-30.704 4.84-8.753 11.58-15.487 20.2-20.2 8.61-4.713 18.51-7.07 29.69-7.07 10.91 0 20.6 2.289 29.09 6.868 8.48 4.579 15.08 11.11 19.79 19.594 4.85 8.484 7.28 18.382 7.28 29.694zm-35.35-9.09c0-5.925-2.02-10.639-6.06-14.14-4.04-3.501-9.09-5.252-15.15-5.252-5.8 0-10.71 1.683-14.75 5.05-3.91 3.367-6.33 8.147-7.27 14.342h43.23zm69.73 68.882c-6.06 0-11.04-1.751-14.95-5.252-3.77-3.636-5.66-8.08-5.66-13.332 0-5.387 1.89-9.898 5.66-13.534 3.91-3.636 8.89-5.454 14.95-5.454 5.92 0 10.77 1.818 14.54 5.454 3.91 3.636 5.86 8.147 5.86 13.534 0 5.252-1.95 9.696-5.86 13.332-3.77 3.501-8.62 5.252-14.54 5.252zm58.22-126.048c-6.06 0-11.04-1.751-14.95-5.252-3.77-3.636-5.65-8.08-5.65-13.332 0-5.387 1.88-9.831 5.65-13.332 3.91-3.636 8.89-5.454 14.95-5.454 5.92 0 10.77 1.818 14.54 5.454 3.91 3.501 5.86 7.945 5.86 13.332 0 5.252-1.95 9.696-5.86 13.332-3.77 3.501-8.62 5.252-14.54 5.252zm17.17 11.716V291h-34.54V178.284h34.54zm76.34 114.332c-11.04 0-21.01-2.357-29.9-7.07-8.75-4.713-15.69-11.447-20.8-20.2-4.99-8.753-7.48-18.988-7.48-30.704 0-11.581 2.56-21.749 7.68-30.502 5.12-8.888 12.12-15.689 21.01-20.402 8.89-4.713 18.85-7.07 29.89-7.07 11.05 0 21.01 2.357 29.9 7.07 8.89 4.713 15.89 11.514 21.01 20.402 5.11 8.753 7.67 18.921 7.67 30.502s-2.62 21.816-7.87 30.704c-5.12 8.753-12.19 15.487-21.21 20.2-8.89 4.713-18.86 7.07-29.9 7.07zm0-29.896c6.6 0 12.19-2.424 16.77-7.272 4.71-4.848 7.07-11.783 7.07-20.806 0-9.023-2.29-15.958-6.87-20.806-4.45-4.848-9.97-7.272-16.57-7.272-6.73 0-12.32 2.424-16.76 7.272-4.45 4.713-6.67 11.649-6.67 20.806 0 9.023 2.16 15.958 6.47 20.806 4.44 4.848 9.96 7.272 16.56 7.272z"/><defs><linearGradient id="b" x1="35.51" x2="481.51" y1="194.5" y2="191" gradientUnits="userSpaceOnUse"><stop stop-color="#920DE9"/><stop offset="1" stop-color="#1536F1"/></linearGradient><linearGradient id="c" x1="541.183" x2="998.171" y1="220" y2="220" gradientUnits="userSpaceOnUse"><stop stop-color="#920DE9"/><stop offset="1" stop-color="#1536F1"/></linearGradient></defs></svg>